{
  "accessors": [
    {
      "bufferView": 2,
      "componentType": 5126,
      "count": 65532,
      "max": [
        0.29644525051116943,
        0.4751216769218445,
        0.272655189037323
      ],
      "min": [
        -0.375293105840683,
        -0.41625118255615234,
        -0.22196105122566223
      ],
      "type": "VEC3"
    },
    {
      "bufferView": 2,
      "byteOffset": 786384,
      "componentType": 5126,
      "count": 65532,
      "max": [
        0.9991917610168457,
        0.9999590516090393,
        0.999980092048645
      ],
      "min": [
        -0.9997153878211975,
        -0.9999294877052307,
        -0.9999755024909973
      ],
      "type": "VEC3"
    },
    {
      "bufferView": 1,
      "componentType": 5126,
      "count": 65532,
      "max": [
        0.9995594620704651,
        0.9995598793029785
      ],
      "min": [
        0.0004405286454129964,
        0.0004401206970214844
      ],
      "type": "VEC2"
    },
    {
      "bufferView": 0,
      "componentType": 5125,
      "count": 65532,
      "type": "SCALAR"
    },
    {
      "bufferView": 2,
      "byteOffset": 1572768,
      "componentType": 5126,
      "count": 65532,
      "max": [
        0.29503583908081055,
        0.4386219084262848,
        0.2723492980003357
      ],
      "min": [
        -0.2848581373691559,
        -0.41706839203834534,
        -0.22239342331886292
      ],
      "type": "VEC3"
    },
    {
      "bufferView": 2,
      "byteOffset": 2359152,
      "componentType": 5126,
      "count": 65532,
      "max": [
        0.9997304677963257,
        0.9996928572654724,
        0.9999961853027344
      ],
      "min": [
        -0.9997308254241943,
        -0.9999777674674988,
        -0.9999986886978149
      ],
      "type": "VEC3"
    },
    {
      "bufferView": 1,
      "byteOffset": 524256,
      "componentType": 5126,
      "count": 65532,
      "max": [
        0.9995594620704651,
        1.0
      ],
      "min": [
        0.0,
        0.0004401206970214844
      ],
      "type": "VEC2"
    },
    {
      "bufferView": 0,
      "byteOffset": 262128,
      "componentType": 5125,
      "count": 65532,
      "type": "SCALAR"
    },
    {
      "bufferView": 2,
      "byteOffset": 3145536,
      "componentType": 5126,
      "count": 65532,
      "max": [
        0.2966175973415375,
        0.47595345973968506,
        0.272655189037323
      ],
      "min": [
        -0.375293105840683,
        -0.41645681858062744,
        -0.22239342331886292
      ],
      "type": "VEC3"
    },
    {
      "bufferView": 2,
      "byteOffset": 3931920,
      "componentType": 5126,
      "count": 65532,
      "max": [
        0.9998624324798584,
        0.9999956488609314,
        0.9999191761016846
      ],
      "min": [
        -0.9999792575836182,
        -0.9999555945396423,
        -0.9999344944953918
      ],
      "type": "VEC3"
    },
    {
      "bufferView": 1,
      "byteOffset": 1048512,
      "componentType": 5126,
      "count": 65532,
      "max": [
        0.9984034895896912,
        1.0
      ],
      "min": [
        0.0,
        0.0013204216957092285
      ],
      "type": "VEC2"
    },
    {
      "bufferView": 0,
      "byteOffset": 524256,
      "componentType": 5125,
      "count": 65532,
      "type": "SCALAR"
    },
    {
      "bufferView": 2,
      "byteOffset": 4718304,
      "componentType": 5126,
      "count": 65532,
      "max": [
        0.29667994379997253,
        0.47618213295936584,
        0.029051626101136208
      ],
      "min": [
        -0.375076025724411,
        -0.4155001640319824,
        -0.14139771461486816
      ],
      "type": "VEC3"
    },
    {
      "bufferView": 2,
      "byteOffset": 5504688,
      "componentType": 5126,
      "count": 65532,
      "max": [
        0.9996494650840759,
        0.9999452233314514,
        0.9936934113502502
      ],
      "min": [
        -0.999695360660553,
        -0.9999828934669495,
        -0.999923586845398
      ],
      "type": "VEC3"
    },
    {
      "bufferView": 1,
      "byteOffset": 1572768,
      "componentType": 5126,
      "count": 65532,
      "max": [
        0.9995594620704651,
        1.0
      ],
      "min": [
        0.0,
        0.00107651948928833
      ],
      "type": "VEC2"
    },
    {
      "bufferView": 0,
      "byteOffset": 786384,
      "componentType": 5125,
      "count": 65532,
      "type": "SCALAR"
    },
    {
      "bufferView": 2,
      "byteOffset": 6291072,
      "componentType": 5126,
      "count": 65532,
      "max": [
        0.2966175973415375,
        0.47595345973968506,
        0.20796653628349304
      ],
      "min": [
        -0.3752519488334656,
        -0.41706839203834534,
        -0.015013470314443111
      ],
      "type": "VEC3"
    },
    {
      "bufferView": 2,
      "byteOffset": 7077456,
      "componentType": 5126,
      "count": 65532,
      "max": [
        0.9999946355819702,
        0.9999968409538269,
        0.9999709129333496
      ],
      "min": [
        -0.9999666213989258,
        -0.9999988675117493,
        -0.9997759461402893
      ],
      "type": "VEC3"
    },
    {
      "bufferView": 1,
      "byteOffset": 2097024,
      "componentType": 5126,
      "count": 65532,
      "max": [
        0.9995594620704651,
        1.0
      ],
      "min": [
        0.0,
        0.0015714168548583984
      ],
      "type": "VEC2"
    },
    {
      "bufferView": 0,
      "byteOffset": 1048512,
      "componentType": 5125,
      "count": 65532,
      "type": "SCALAR"
    },
    {
      "bufferView": 2,
      "byteOffset": 7863840,
      "componentType": 5126,
      "count": 65532,
      "max": [
        0.2965649962425232,
        0.4755989611148834,
        0.272655189037323
      ],
      "min": [
        -0.36364462971687317,
        -0.4155001640319824,
        -0.22239342331886292
      ],
      "type": "VEC3"
    },
    {
      "bufferView": 2,
      "byteOffset": 8650224,
      "componentType": 5126,
      "count": 65532,
      "max": [
        0.9994148015975952,
        0.9999801516532898,
        0.9999621510505676
      ],
      "min": [
        -0.9995547533035278,
        -0.99997478723526,
        -0.9999933838844299
      ],
      "type": "VEC3"
    },
    {
      "bufferView": 1,
      "byteOffset": 2621280,
      "componentType": 5126,
      "count": 65532,
      "max": [
        0.9986783862113953,
        0.9986795783042908
      ],
      "min": [
        0.0004405286454129964,
        0.0004401206970214844
      ],
      "type": "VEC2"
    },
    {
      "bufferView": 0,
      "byteOffset": 1310640,
      "componentType": 5125,
      "count": 65532,
      "type": "SCALAR"
    },
    {
      "bufferView": 2,
      "byteOffset": 9436608,
      "componentType": 5126,
      "count": 35598,
      "max": [
        0.29667994379997253,
        0.4729960262775421,
        0.17342935502529144
      ],
      "min": [
        -0.375293105840683,
        -0.41706839203834534,
        0.0030930107459425926
      ],
      "type": "VEC3"
    },
    {
      "bufferView": 2,
      "byteOffset": 9863784,
      "componentType": 5126,
      "count": 35598,
      "max": [
        0.9999318718910217,
        0.9999986886978149,
        0.9997655153274536
      ],
      "min": [
        -0.9999425411224365,
        -0.9999733567237854,
        -0.9997845888137817
      ],
      "type": "VEC3"
    },
    {
      "bufferView": 1,
      "byteOffset": 3145536,
      "componentType": 5126,
      "count": 35598,
      "max": [
        0.9995594620704651,
        0.997799277305603
      ],
      "min": [
        0.0030837005469948053,
        0.0004401206970214844
      ],
      "type": "VEC2"
    },
    {
      "bufferView": 0,
      "byteOffset": 1572768,
      "componentType": 5125,
      "count": 35598,
      "type": "SCALAR"
    }
  ],
  "asset": {
    "extras": {
      "author": "ariadnedesignsai (https://sketchfab.com/ariadneaidesign)",
      "license": "CC-BY-NC-4.0 (http://creativecommons.org/licenses/by-nc/4.0/)",
      "source": "https://sketchfab.com/3d-models/magical-hoots-ariadnes-csm-owl-75ec95530afc4a858e35eca545236b61",
      "title": "Magical Hoots - Ariadne's CSM Owl"
    },
    "generator": "Sketchfab-15.97.0",
    "version": "2.0"
  },
  "bufferViews": [
    {
      "buffer": 0,
      "byteLength": 1715160,
      "name": "floatBufferViews",
      "target": 34963
    },
    {
      "buffer": 0,
      "byteLength": 3430320,
      "byteOffset": 1715160,
      "byteStride": 8,
      "name": "floatBufferViews",
      "target": 34962
    },
    {
      "buffer": 0,
      "byteLength": 10290960,
      "byteOffset": 5145480,
      "byteStride": 12,
      "name": "floatBufferViews",
      "target": 34962
    }
  ],
  "buffers": [
    {
      "byteLength": 15436440,
      "uri": "scene.bin"
    }
  ],
  "images": [
    {
      "uri": "textures/mat0_baseColor.png"
    }
  ],
  "materials": [
    {
      "doubleSided": true,
      "name": "mat0",
      "pbrMetallicRoughness": {
        "baseColorTexture": {
          "index": 0
        },
        "metallicFactor": 0.13937555460693773
      }
    }
  ],
  "meshes": [
    {
      "name": "mesh_mat0_0",
      "primitives": [
        {
          "attributes": {
            "NORMAL": 1,
            "POSITION": 0,
            "TEXCOORD_0": 2
          },
          "indices": 3,
          "material": 0,
          "mode": 4
        }
      ]
    },
    {
      "name": "mesh_mat0_0",
      "primitives": [
        {
          "attributes": {
            "NORMAL": 5,
            "POSITION": 4,
            "TEXCOORD_0": 6
          },
          "indices": 7,
          "material": 0,
          "mode": 4
        }
      ]
    },
    {
      "name": "mesh_mat0_0",
      "primitives": [
        {
          "attributes": {
            "NORMAL": 9,
            "POSITION": 8,
            "TEXCOORD_0": 10
          },
          "indices": 11,
          "material": 0,
          "mode": 4
        }
      ]
    },
    {
      "name": "mesh_mat0_0",
      "primitives": [
        {
          "attributes": {
            "NORMAL": 13,
            "POSITION": 12,
            "TEXCOORD_0": 14
          },
          "indices": 15,
          "material": 0,
          "mode": 4
        }
      ]
    },
    {
      "name": "mesh_mat0_0",
      "primitives": [
        {
          "attributes": {
            "NORMAL": 17,
            "POSITION": 16,
            "TEXCOORD_0": 18
          },
          "indices": 19,
          "material": 0,
          "mode": 4
        }
      ]
    },
    {
      "name": "mesh_mat0_0",
      "primitives": [
        {
          "attributes": {
            "NORMAL": 21,
            "POSITION": 20,
            "TEXCOORD_0": 22
          },
          "indices": 23,
          "material": 0,
          "mode": 4
        }
      ]
    },
    {
      "name": "mesh_mat0_0",
      "primitives": [
        {
          "attributes": {
            "NORMAL": 25,
            "POSITION": 24,
            "TEXCOORD_0": 26
          },
          "indices": 27,
          "material": 0,
          "mode": 4
        }
      ]
    }
  ],
  "nodes": [
    {
      "children": [
        1
      ],
      "matrix": [
        1.0,
        0.0,
        0.0,
        0.0,
        0.0,
        2.220446049250313e-16,
        -1.0,
        0.0,
        0.0,
        1.0,
        2.220446049250313e-16,
        0.0,
        0.0,
        0.0,
        0.0,
        1.0
      ],
      "name": "Sketchfab_model"
    },
    {
      "children": [
        2
      ],
      "matrix": [
        0.009999999776482582,
        0.0,
        0.0,
        0.0,
        0.0,
        0.0,
        0.009999999776482582,
        0.0,
        0.0,
        -0.009999999776482582,
        0.0,
        0.0,
        0.0,
        0.0,
        0.0,
        1.0
      ],
      "name": "27f9ebd3ec734730bf524bcb3b19ffd3.fbx"
    },
    {
      "children": [
        3
      ],
      "name": "RootNode"
    },
    {
      "children": [
        4,
        5,
        6,
        7,
        8,
        9,
        10
      ],
      "matrix": [
        100.0,
        0.0,
        0.0,
        0.0,
        0.0,
        99.99999999999972,
        -7.5497901264043296e-06,
        0.0,
        0.0,
        7.5497901264043296e-06,
        99.99999999999972,
        0.0,
        0.0,
        0.0,
        0.0,
        1.0
      ],
      "name": "mesh"
    },
    {
      "mesh": 0,
      "name": "mesh_mat0_0"
    },
    {
      "mesh": 1,
      "name": "mesh_mat0_0"
    },
    {
      "mesh": 2,
      "name": "mesh_mat0_0"
    },
    {
      "mesh": 3,
      "name": "mesh_mat0_0"
    },
    {
      "mesh": 4,
      "name": "mesh_mat0_0"
    },
    {
      "mesh": 5,
      "name": "mesh_mat0_0"
    },
    {
      "mesh": 6,
      "name": "mesh_mat0_0"
    }
  ],
  "samplers": [
    {
      "magFilter": 9729,
      "minFilter": 9987,
      "wrapS": 10497,
      "wrapT": 10497
    }
  ],
  "scene": 0,
  "scenes": [
    {
      "name": "Sketchfab_Scene",
      "nodes": [
        0
      ]
    }
  ],
  "textures": [
    {
      "sampler": 0,
      "source": 0
    }
  ]
}
